<mxfile host="app.diagrams.net" modified="2024-03-07T15:57:58.891Z" agent="Mozilla/5.0 (Windows NT 10.0; Win64; x64) AppleWebKit/537.36 (KHTML, like Gecko) Chrome/122.0.0.0 Safari/537.36" etag="LKS_A8M80C2vJ93gH5Ir" version="24.0.2" type="github">
  <diagram name="Page-1" id="e56a1550-8fbb-45ad-956c-1786394a9013">
    <mxGraphModel dx="1796" dy="1036" grid="1" gridSize="10" guides="1" tooltips="1" connect="1" arrows="1" fold="1" page="1" pageScale="1" pageWidth="1100" pageHeight="850" background="none" math="0" shadow="0">
      <root>
        <mxCell id="0" />
        <mxCell id="1" parent="0" />
        <mxCell id="2e49270ec7c68f3f-80" value="ASB_PRM_COTIZADOR" style="swimlane;html=1;fontStyle=0;childLayout=stackLayout;horizontal=1;startSize=26;fillColor=#e0e0e0;horizontalStack=0;resizeParent=1;resizeLast=0;collapsible=1;marginBottom=0;swimlaneFillColor=#ffffff;align=center;rounded=0;shadow=0;comic=0;labelBackgroundColor=none;strokeWidth=1;fontFamily=Verdana;fontSize=10;" parent="1" vertex="1">
          <mxGeometry x="450" y="480" width="200" height="300" as="geometry" />
        </mxCell>
        <mxCell id="2e49270ec7c68f3f-81" value="ID_COTIZADOR" style="shape=partialRectangle;top=0;left=0;right=0;bottom=1;html=1;align=left;verticalAlign=middle;fillColor=none;spacingLeft=34;spacingRight=4;whiteSpace=wrap;overflow=hidden;rotatable=0;points=[[0,0.5],[1,0.5]];portConstraint=eastwest;dropTarget=0;fontStyle=5;fontSize=10;" parent="2e49270ec7c68f3f-80" vertex="1">
          <mxGeometry y="26" width="200" height="30" as="geometry" />
        </mxCell>
        <mxCell id="2e49270ec7c68f3f-82" value="PK" style="shape=partialRectangle;top=0;left=0;bottom=0;html=1;fillColor=none;align=left;verticalAlign=middle;spacingLeft=4;spacingRight=4;whiteSpace=wrap;overflow=hidden;rotatable=0;points=[];portConstraint=eastwest;part=1;fontSize=10;" parent="2e49270ec7c68f3f-81" vertex="1" connectable="0">
          <mxGeometry width="30" height="30" as="geometry" />
        </mxCell>
        <mxCell id="2e49270ec7c68f3f-83" value="ID_ESTADO_CAMPO" style="shape=partialRectangle;top=0;left=0;right=0;bottom=0;html=1;align=left;verticalAlign=top;fillColor=none;spacingLeft=34;spacingRight=4;whiteSpace=wrap;overflow=hidden;rotatable=0;points=[[0,0.5],[1,0.5]];portConstraint=eastwest;dropTarget=0;fontSize=10;" parent="2e49270ec7c68f3f-80" vertex="1">
          <mxGeometry y="56" width="200" height="26" as="geometry" />
        </mxCell>
        <mxCell id="2e49270ec7c68f3f-84" value="FK" style="shape=partialRectangle;top=0;left=0;bottom=0;html=1;fillColor=none;align=left;verticalAlign=top;spacingLeft=4;spacingRight=4;whiteSpace=wrap;overflow=hidden;rotatable=0;points=[];portConstraint=eastwest;part=1;fontSize=10;" parent="2e49270ec7c68f3f-83" vertex="1" connectable="0">
          <mxGeometry width="30" height="26" as="geometry" />
        </mxCell>
        <mxCell id="2e49270ec7c68f3f-85" value="ID_PRODUCTO" style="shape=partialRectangle;top=0;left=0;right=0;bottom=0;html=1;align=left;verticalAlign=top;fillColor=none;spacingLeft=34;spacingRight=4;whiteSpace=wrap;overflow=hidden;rotatable=0;points=[[0,0.5],[1,0.5]];portConstraint=eastwest;dropTarget=0;fontSize=10;" parent="2e49270ec7c68f3f-80" vertex="1">
          <mxGeometry y="82" width="200" height="26" as="geometry" />
        </mxCell>
        <mxCell id="2e49270ec7c68f3f-86" value="FK" style="shape=partialRectangle;top=0;left=0;bottom=0;html=1;fillColor=none;align=left;verticalAlign=top;spacingLeft=4;spacingRight=4;whiteSpace=wrap;overflow=hidden;rotatable=0;points=[];portConstraint=eastwest;part=1;fontSize=10;" parent="2e49270ec7c68f3f-85" vertex="1" connectable="0">
          <mxGeometry width="30" height="26" as="geometry" />
        </mxCell>
        <mxCell id="2e49270ec7c68f3f-87" value="ID_PLAN_PRODUCTO" style="shape=partialRectangle;top=0;left=0;right=0;bottom=0;html=1;align=left;verticalAlign=top;fillColor=none;spacingLeft=34;spacingRight=4;whiteSpace=wrap;overflow=hidden;rotatable=0;points=[[0,0.5],[1,0.5]];portConstraint=eastwest;dropTarget=0;fontSize=10;" parent="2e49270ec7c68f3f-80" vertex="1">
          <mxGeometry y="108" width="200" height="26" as="geometry" />
        </mxCell>
        <mxCell id="2e49270ec7c68f3f-88" value="FK" style="shape=partialRectangle;top=0;left=0;bottom=0;html=1;fillColor=none;align=left;verticalAlign=top;spacingLeft=4;spacingRight=4;whiteSpace=wrap;overflow=hidden;rotatable=0;points=[];portConstraint=eastwest;part=1;fontSize=10;" parent="2e49270ec7c68f3f-87" vertex="1" connectable="0">
          <mxGeometry width="30" height="26" as="geometry" />
        </mxCell>
        <mxCell id="AbUVaqsSFK9AA0rouDUY-1" value="RANGO_INICIAL" style="shape=partialRectangle;top=0;left=0;right=0;bottom=0;html=1;align=left;verticalAlign=top;fillColor=none;spacingLeft=34;spacingRight=4;whiteSpace=wrap;overflow=hidden;rotatable=0;points=[[0,0.5],[1,0.5]];portConstraint=eastwest;dropTarget=0;fontSize=10;" vertex="1" parent="2e49270ec7c68f3f-80">
          <mxGeometry y="134" width="200" height="26" as="geometry" />
        </mxCell>
        <mxCell id="AbUVaqsSFK9AA0rouDUY-2" value="" style="shape=partialRectangle;top=0;left=0;bottom=0;html=1;fillColor=none;align=left;verticalAlign=top;spacingLeft=4;spacingRight=4;whiteSpace=wrap;overflow=hidden;rotatable=0;points=[];portConstraint=eastwest;part=1;fontSize=10;" vertex="1" connectable="0" parent="AbUVaqsSFK9AA0rouDUY-1">
          <mxGeometry width="30" height="26" as="geometry" />
        </mxCell>
        <mxCell id="AbUVaqsSFK9AA0rouDUY-3" value="RANGO_FINAL" style="shape=partialRectangle;top=0;left=0;right=0;bottom=0;html=1;align=left;verticalAlign=top;fillColor=none;spacingLeft=34;spacingRight=4;whiteSpace=wrap;overflow=hidden;rotatable=0;points=[[0,0.5],[1,0.5]];portConstraint=eastwest;dropTarget=0;fontSize=10;" vertex="1" parent="2e49270ec7c68f3f-80">
          <mxGeometry y="160" width="200" height="26" as="geometry" />
        </mxCell>
        <mxCell id="AbUVaqsSFK9AA0rouDUY-4" value="" style="shape=partialRectangle;top=0;left=0;bottom=0;html=1;fillColor=none;align=left;verticalAlign=top;spacingLeft=4;spacingRight=4;whiteSpace=wrap;overflow=hidden;rotatable=0;points=[];portConstraint=eastwest;part=1;fontSize=10;" vertex="1" connectable="0" parent="AbUVaqsSFK9AA0rouDUY-3">
          <mxGeometry width="30" height="26" as="geometry" />
        </mxCell>
        <mxCell id="AbUVaqsSFK9AA0rouDUY-5" value="CMP_LOGIN_USUARIO" style="shape=partialRectangle;top=0;left=0;right=0;bottom=0;html=1;align=left;verticalAlign=top;fillColor=none;spacingLeft=34;spacingRight=4;whiteSpace=wrap;overflow=hidden;rotatable=0;points=[[0,0.5],[1,0.5]];portConstraint=eastwest;dropTarget=0;fontSize=10;" vertex="1" parent="2e49270ec7c68f3f-80">
          <mxGeometry y="186" width="200" height="26" as="geometry" />
        </mxCell>
        <mxCell id="AbUVaqsSFK9AA0rouDUY-6" value="" style="shape=partialRectangle;top=0;left=0;bottom=0;html=1;fillColor=none;align=left;verticalAlign=top;spacingLeft=4;spacingRight=4;whiteSpace=wrap;overflow=hidden;rotatable=0;points=[];portConstraint=eastwest;part=1;fontSize=10;" vertex="1" connectable="0" parent="AbUVaqsSFK9AA0rouDUY-5">
          <mxGeometry width="30" height="26" as="geometry" />
        </mxCell>
        <mxCell id="AbUVaqsSFK9AA0rouDUY-7" value="CMP_FECHA_INGRESO" style="shape=partialRectangle;top=0;left=0;right=0;bottom=0;html=1;align=left;verticalAlign=top;fillColor=none;spacingLeft=34;spacingRight=4;whiteSpace=wrap;overflow=hidden;rotatable=0;points=[[0,0.5],[1,0.5]];portConstraint=eastwest;dropTarget=0;fontSize=10;" vertex="1" parent="2e49270ec7c68f3f-80">
          <mxGeometry y="212" width="200" height="26" as="geometry" />
        </mxCell>
        <mxCell id="AbUVaqsSFK9AA0rouDUY-8" value="" style="shape=partialRectangle;top=0;left=0;bottom=0;html=1;fillColor=none;align=left;verticalAlign=top;spacingLeft=4;spacingRight=4;whiteSpace=wrap;overflow=hidden;rotatable=0;points=[];portConstraint=eastwest;part=1;fontSize=10;" vertex="1" connectable="0" parent="AbUVaqsSFK9AA0rouDUY-7">
          <mxGeometry width="30" height="26" as="geometry" />
        </mxCell>
        <mxCell id="AbUVaqsSFK9AA0rouDUY-11" value="CMP_FECHA_CANCELA" style="shape=partialRectangle;top=0;left=0;right=0;bottom=0;html=1;align=left;verticalAlign=top;fillColor=none;spacingLeft=34;spacingRight=4;whiteSpace=wrap;overflow=hidden;rotatable=0;points=[[0,0.5],[1,0.5]];portConstraint=eastwest;dropTarget=0;fontSize=10;" vertex="1" parent="2e49270ec7c68f3f-80">
          <mxGeometry y="238" width="200" height="26" as="geometry" />
        </mxCell>
        <mxCell id="AbUVaqsSFK9AA0rouDUY-12" value="" style="shape=partialRectangle;top=0;left=0;bottom=0;html=1;fillColor=none;align=left;verticalAlign=top;spacingLeft=4;spacingRight=4;whiteSpace=wrap;overflow=hidden;rotatable=0;points=[];portConstraint=eastwest;part=1;fontSize=10;" vertex="1" connectable="0" parent="AbUVaqsSFK9AA0rouDUY-11">
          <mxGeometry width="30" height="26" as="geometry" />
        </mxCell>
        <mxCell id="AbUVaqsSFK9AA0rouDUY-9" value="ID_PRODUCTO_CAMPANIA" style="shape=partialRectangle;top=0;left=0;right=0;bottom=0;html=1;align=left;verticalAlign=top;fillColor=none;spacingLeft=34;spacingRight=4;whiteSpace=wrap;overflow=hidden;rotatable=0;points=[[0,0.5],[1,0.5]];portConstraint=eastwest;dropTarget=0;fontSize=10;" vertex="1" parent="2e49270ec7c68f3f-80">
          <mxGeometry y="264" width="200" height="26" as="geometry" />
        </mxCell>
        <mxCell id="AbUVaqsSFK9AA0rouDUY-10" value="" style="shape=partialRectangle;top=0;left=0;bottom=0;html=1;fillColor=none;align=left;verticalAlign=top;spacingLeft=4;spacingRight=4;whiteSpace=wrap;overflow=hidden;rotatable=0;points=[];portConstraint=eastwest;part=1;fontSize=10;" vertex="1" connectable="0" parent="AbUVaqsSFK9AA0rouDUY-9">
          <mxGeometry width="30" height="26" as="geometry" />
        </mxCell>
        <mxCell id="2e49270ec7c68f3f-89" value="" style="shape=partialRectangle;top=0;left=0;right=0;bottom=0;html=1;align=left;verticalAlign=top;fillColor=none;spacingLeft=34;spacingRight=4;whiteSpace=wrap;overflow=hidden;rotatable=0;points=[[0,0.5],[1,0.5]];portConstraint=eastwest;dropTarget=0;" parent="2e49270ec7c68f3f-80" vertex="1">
          <mxGeometry y="290" width="200" height="10" as="geometry" />
        </mxCell>
        <mxCell id="2e49270ec7c68f3f-90" value="" style="shape=partialRectangle;top=0;left=0;bottom=0;html=1;fillColor=none;align=left;verticalAlign=top;spacingLeft=4;spacingRight=4;whiteSpace=wrap;overflow=hidden;rotatable=0;points=[];portConstraint=eastwest;part=1;" parent="2e49270ec7c68f3f-89" vertex="1" connectable="0">
          <mxGeometry width="30" height="10" as="geometry" />
        </mxCell>
        <mxCell id="AbUVaqsSFK9AA0rouDUY-13" value="ASB_PRM_PREVENTA_COTIZADOR" style="swimlane;html=1;fontStyle=0;childLayout=stackLayout;horizontal=1;startSize=26;fillColor=#e0e0e0;horizontalStack=0;resizeParent=1;resizeLast=0;collapsible=1;marginBottom=0;swimlaneFillColor=#ffffff;align=center;rounded=0;shadow=0;comic=0;labelBackgroundColor=none;strokeWidth=1;fontFamily=Verdana;fontSize=10;" vertex="1" parent="1">
          <mxGeometry x="450" y="80" width="330" height="352" as="geometry" />
        </mxCell>
        <mxCell id="AbUVaqsSFK9AA0rouDUY-14" value="ID_PRM_PREVENTA_COTIZADOR" style="shape=partialRectangle;top=0;left=0;right=0;bottom=1;html=1;align=left;verticalAlign=middle;fillColor=none;spacingLeft=34;spacingRight=4;whiteSpace=wrap;overflow=hidden;rotatable=0;points=[[0,0.5],[1,0.5]];portConstraint=eastwest;dropTarget=0;fontStyle=5;fontSize=10;" vertex="1" parent="AbUVaqsSFK9AA0rouDUY-13">
          <mxGeometry y="26" width="330" height="30" as="geometry" />
        </mxCell>
        <mxCell id="AbUVaqsSFK9AA0rouDUY-15" value="PK" style="shape=partialRectangle;top=0;left=0;bottom=0;html=1;fillColor=none;align=left;verticalAlign=middle;spacingLeft=4;spacingRight=4;whiteSpace=wrap;overflow=hidden;rotatable=0;points=[];portConstraint=eastwest;part=1;fontSize=10;" vertex="1" connectable="0" parent="AbUVaqsSFK9AA0rouDUY-14">
          <mxGeometry width="30" height="30" as="geometry" />
        </mxCell>
        <mxCell id="AbUVaqsSFK9AA0rouDUY-16" value="ID_ESTADO_CAMPO" style="shape=partialRectangle;top=0;left=0;right=0;bottom=0;html=1;align=left;verticalAlign=top;fillColor=none;spacingLeft=34;spacingRight=4;whiteSpace=wrap;overflow=hidden;rotatable=0;points=[[0,0.5],[1,0.5]];portConstraint=eastwest;dropTarget=0;fontSize=10;" vertex="1" parent="AbUVaqsSFK9AA0rouDUY-13">
          <mxGeometry y="56" width="330" height="26" as="geometry" />
        </mxCell>
        <mxCell id="AbUVaqsSFK9AA0rouDUY-17" value="FK" style="shape=partialRectangle;top=0;left=0;bottom=0;html=1;fillColor=none;align=left;verticalAlign=top;spacingLeft=4;spacingRight=4;whiteSpace=wrap;overflow=hidden;rotatable=0;points=[];portConstraint=eastwest;part=1;fontSize=10;" vertex="1" connectable="0" parent="AbUVaqsSFK9AA0rouDUY-16">
          <mxGeometry width="30" height="26" as="geometry" />
        </mxCell>
        <mxCell id="AbUVaqsSFK9AA0rouDUY-18" value="ID_PRODUCTO" style="shape=partialRectangle;top=0;left=0;right=0;bottom=0;html=1;align=left;verticalAlign=top;fillColor=none;spacingLeft=34;spacingRight=4;whiteSpace=wrap;overflow=hidden;rotatable=0;points=[[0,0.5],[1,0.5]];portConstraint=eastwest;dropTarget=0;fontSize=10;" vertex="1" parent="AbUVaqsSFK9AA0rouDUY-13">
          <mxGeometry y="82" width="330" height="26" as="geometry" />
        </mxCell>
        <mxCell id="AbUVaqsSFK9AA0rouDUY-19" value="FK" style="shape=partialRectangle;top=0;left=0;bottom=0;html=1;fillColor=none;align=left;verticalAlign=top;spacingLeft=4;spacingRight=4;whiteSpace=wrap;overflow=hidden;rotatable=0;points=[];portConstraint=eastwest;part=1;fontSize=10;" vertex="1" connectable="0" parent="AbUVaqsSFK9AA0rouDUY-18">
          <mxGeometry width="30" height="26" as="geometry" />
        </mxCell>
        <mxCell id="AbUVaqsSFK9AA0rouDUY-22" value="VALOR_GASTOS_ADMINISTRATIVOS" style="shape=partialRectangle;top=0;left=0;right=0;bottom=0;html=1;align=left;verticalAlign=top;fillColor=none;spacingLeft=34;spacingRight=4;whiteSpace=wrap;overflow=hidden;rotatable=0;points=[[0,0.5],[1,0.5]];portConstraint=eastwest;dropTarget=0;fontSize=10;" vertex="1" parent="AbUVaqsSFK9AA0rouDUY-13">
          <mxGeometry y="108" width="330" height="26" as="geometry" />
        </mxCell>
        <mxCell id="AbUVaqsSFK9AA0rouDUY-23" value="" style="shape=partialRectangle;top=0;left=0;bottom=0;html=1;fillColor=none;align=left;verticalAlign=top;spacingLeft=4;spacingRight=4;whiteSpace=wrap;overflow=hidden;rotatable=0;points=[];portConstraint=eastwest;part=1;fontSize=10;" vertex="1" connectable="0" parent="AbUVaqsSFK9AA0rouDUY-22">
          <mxGeometry width="30" height="26" as="geometry" />
        </mxCell>
        <mxCell id="AbUVaqsSFK9AA0rouDUY-24" value="VALOR_SEGURO_DESEMPLEO" style="shape=partialRectangle;top=0;left=0;right=0;bottom=0;html=1;align=left;verticalAlign=top;fillColor=none;spacingLeft=34;spacingRight=4;whiteSpace=wrap;overflow=hidden;rotatable=0;points=[[0,0.5],[1,0.5]];portConstraint=eastwest;dropTarget=0;fontSize=10;" vertex="1" parent="AbUVaqsSFK9AA0rouDUY-13">
          <mxGeometry y="134" width="330" height="26" as="geometry" />
        </mxCell>
        <mxCell id="AbUVaqsSFK9AA0rouDUY-25" value="" style="shape=partialRectangle;top=0;left=0;bottom=0;html=1;fillColor=none;align=left;verticalAlign=top;spacingLeft=4;spacingRight=4;whiteSpace=wrap;overflow=hidden;rotatable=0;points=[];portConstraint=eastwest;part=1;fontSize=10;" vertex="1" connectable="0" parent="AbUVaqsSFK9AA0rouDUY-24">
          <mxGeometry width="30" height="26" as="geometry" />
        </mxCell>
        <mxCell id="AbUVaqsSFK9AA0rouDUY-26" value="PORCENTAJE_SEGURO_CAMPESINO" style="shape=partialRectangle;top=0;left=0;right=0;bottom=0;html=1;align=left;verticalAlign=top;fillColor=none;spacingLeft=34;spacingRight=4;whiteSpace=wrap;overflow=hidden;rotatable=0;points=[[0,0.5],[1,0.5]];portConstraint=eastwest;dropTarget=0;fontSize=10;" vertex="1" parent="AbUVaqsSFK9AA0rouDUY-13">
          <mxGeometry y="160" width="330" height="26" as="geometry" />
        </mxCell>
        <mxCell id="AbUVaqsSFK9AA0rouDUY-27" value="" style="shape=partialRectangle;top=0;left=0;bottom=0;html=1;fillColor=none;align=left;verticalAlign=top;spacingLeft=4;spacingRight=4;whiteSpace=wrap;overflow=hidden;rotatable=0;points=[];portConstraint=eastwest;part=1;fontSize=10;" vertex="1" connectable="0" parent="AbUVaqsSFK9AA0rouDUY-26">
          <mxGeometry width="30" height="26" as="geometry" />
        </mxCell>
        <mxCell id="AbUVaqsSFK9AA0rouDUY-28" value="VALOR_ADICIONAL_POR_TARJETA" style="shape=partialRectangle;top=0;left=0;right=0;bottom=0;html=1;align=left;verticalAlign=top;fillColor=none;spacingLeft=34;spacingRight=4;whiteSpace=wrap;overflow=hidden;rotatable=0;points=[[0,0.5],[1,0.5]];portConstraint=eastwest;dropTarget=0;fontSize=10;" vertex="1" parent="AbUVaqsSFK9AA0rouDUY-13">
          <mxGeometry y="186" width="330" height="26" as="geometry" />
        </mxCell>
        <mxCell id="AbUVaqsSFK9AA0rouDUY-29" value="" style="shape=partialRectangle;top=0;left=0;bottom=0;html=1;fillColor=none;align=left;verticalAlign=top;spacingLeft=4;spacingRight=4;whiteSpace=wrap;overflow=hidden;rotatable=0;points=[];portConstraint=eastwest;part=1;fontSize=10;" vertex="1" connectable="0" parent="AbUVaqsSFK9AA0rouDUY-28">
          <mxGeometry width="30" height="26" as="geometry" />
        </mxCell>
        <mxCell id="AbUVaqsSFK9AA0rouDUY-30" value="PORCENTAJE_SEGURO_CAMPESINO_POR_TARJETA" style="shape=partialRectangle;top=0;left=0;right=0;bottom=0;html=1;align=left;verticalAlign=top;fillColor=none;spacingLeft=34;spacingRight=4;whiteSpace=wrap;overflow=hidden;rotatable=0;points=[[0,0.5],[1,0.5]];portConstraint=eastwest;dropTarget=0;fontSize=10;" vertex="1" parent="AbUVaqsSFK9AA0rouDUY-13">
          <mxGeometry y="212" width="330" height="26" as="geometry" />
        </mxCell>
        <mxCell id="AbUVaqsSFK9AA0rouDUY-31" value="" style="shape=partialRectangle;top=0;left=0;bottom=0;html=1;fillColor=none;align=left;verticalAlign=top;spacingLeft=4;spacingRight=4;whiteSpace=wrap;overflow=hidden;rotatable=0;points=[];portConstraint=eastwest;part=1;fontSize=10;" vertex="1" connectable="0" parent="AbUVaqsSFK9AA0rouDUY-30">
          <mxGeometry width="30" height="26" as="geometry" />
        </mxCell>
        <mxCell id="AbUVaqsSFK9AA0rouDUY-32" value="CMP_LOGIN_USUARIO" style="shape=partialRectangle;top=0;left=0;right=0;bottom=0;html=1;align=left;verticalAlign=top;fillColor=none;spacingLeft=34;spacingRight=4;whiteSpace=wrap;overflow=hidden;rotatable=0;points=[[0,0.5],[1,0.5]];portConstraint=eastwest;dropTarget=0;fontSize=10;" vertex="1" parent="AbUVaqsSFK9AA0rouDUY-13">
          <mxGeometry y="238" width="330" height="26" as="geometry" />
        </mxCell>
        <mxCell id="AbUVaqsSFK9AA0rouDUY-33" value="" style="shape=partialRectangle;top=0;left=0;bottom=0;html=1;fillColor=none;align=left;verticalAlign=top;spacingLeft=4;spacingRight=4;whiteSpace=wrap;overflow=hidden;rotatable=0;points=[];portConstraint=eastwest;part=1;fontSize=10;" vertex="1" connectable="0" parent="AbUVaqsSFK9AA0rouDUY-32">
          <mxGeometry width="30" height="26" as="geometry" />
        </mxCell>
        <mxCell id="AbUVaqsSFK9AA0rouDUY-38" value="CMP_FECHA_INGRESO" style="shape=partialRectangle;top=0;left=0;right=0;bottom=0;html=1;align=left;verticalAlign=top;fillColor=none;spacingLeft=34;spacingRight=4;whiteSpace=wrap;overflow=hidden;rotatable=0;points=[[0,0.5],[1,0.5]];portConstraint=eastwest;dropTarget=0;fontSize=10;" vertex="1" parent="AbUVaqsSFK9AA0rouDUY-13">
          <mxGeometry y="264" width="330" height="26" as="geometry" />
        </mxCell>
        <mxCell id="AbUVaqsSFK9AA0rouDUY-39" value="" style="shape=partialRectangle;top=0;left=0;bottom=0;html=1;fillColor=none;align=left;verticalAlign=top;spacingLeft=4;spacingRight=4;whiteSpace=wrap;overflow=hidden;rotatable=0;points=[];portConstraint=eastwest;part=1;fontSize=10;" vertex="1" connectable="0" parent="AbUVaqsSFK9AA0rouDUY-38">
          <mxGeometry width="30" height="26" as="geometry" />
        </mxCell>
        <mxCell id="AbUVaqsSFK9AA0rouDUY-40" value="CMP_FECHA_CANCELA" style="shape=partialRectangle;top=0;left=0;right=0;bottom=0;html=1;align=left;verticalAlign=top;fillColor=none;spacingLeft=34;spacingRight=4;whiteSpace=wrap;overflow=hidden;rotatable=0;points=[[0,0.5],[1,0.5]];portConstraint=eastwest;dropTarget=0;fontSize=10;" vertex="1" parent="AbUVaqsSFK9AA0rouDUY-13">
          <mxGeometry y="290" width="330" height="26" as="geometry" />
        </mxCell>
        <mxCell id="AbUVaqsSFK9AA0rouDUY-41" value="" style="shape=partialRectangle;top=0;left=0;bottom=0;html=1;fillColor=none;align=left;verticalAlign=top;spacingLeft=4;spacingRight=4;whiteSpace=wrap;overflow=hidden;rotatable=0;points=[];portConstraint=eastwest;part=1;fontSize=10;" vertex="1" connectable="0" parent="AbUVaqsSFK9AA0rouDUY-40">
          <mxGeometry width="30" height="26" as="geometry" />
        </mxCell>
        <mxCell id="AbUVaqsSFK9AA0rouDUY-36" value="ID_PRODUCTO_CAMPANIA" style="shape=partialRectangle;top=0;left=0;right=0;bottom=0;html=1;align=left;verticalAlign=top;fillColor=none;spacingLeft=34;spacingRight=4;whiteSpace=wrap;overflow=hidden;rotatable=0;points=[[0,0.5],[1,0.5]];portConstraint=eastwest;dropTarget=0;fontSize=10;" vertex="1" parent="AbUVaqsSFK9AA0rouDUY-13">
          <mxGeometry y="316" width="330" height="26" as="geometry" />
        </mxCell>
        <mxCell id="AbUVaqsSFK9AA0rouDUY-37" value="" style="shape=partialRectangle;top=0;left=0;bottom=0;html=1;fillColor=none;align=left;verticalAlign=top;spacingLeft=4;spacingRight=4;whiteSpace=wrap;overflow=hidden;rotatable=0;points=[];portConstraint=eastwest;part=1;fontSize=10;" vertex="1" connectable="0" parent="AbUVaqsSFK9AA0rouDUY-36">
          <mxGeometry width="30" height="26" as="geometry" />
        </mxCell>
        <mxCell id="AbUVaqsSFK9AA0rouDUY-34" value="" style="shape=partialRectangle;top=0;left=0;right=0;bottom=0;html=1;align=left;verticalAlign=top;fillColor=none;spacingLeft=34;spacingRight=4;whiteSpace=wrap;overflow=hidden;rotatable=0;points=[[0,0.5],[1,0.5]];portConstraint=eastwest;dropTarget=0;" vertex="1" parent="AbUVaqsSFK9AA0rouDUY-13">
          <mxGeometry y="342" width="330" height="10" as="geometry" />
        </mxCell>
        <mxCell id="AbUVaqsSFK9AA0rouDUY-35" value="" style="shape=partialRectangle;top=0;left=0;bottom=0;html=1;fillColor=none;align=left;verticalAlign=top;spacingLeft=4;spacingRight=4;whiteSpace=wrap;overflow=hidden;rotatable=0;points=[];portConstraint=eastwest;part=1;" vertex="1" connectable="0" parent="AbUVaqsSFK9AA0rouDUY-34">
          <mxGeometry width="30" height="10" as="geometry" />
        </mxCell>
        <mxCell id="AbUVaqsSFK9AA0rouDUY-42" value="ASB_PRODUCTO" style="swimlane;html=1;fontStyle=0;childLayout=stackLayout;horizontal=1;startSize=26;fillColor=#e0e0e0;horizontalStack=0;resizeParent=1;resizeLast=0;collapsible=1;marginBottom=0;swimlaneFillColor=#ffffff;align=center;rounded=0;shadow=0;comic=0;labelBackgroundColor=none;strokeWidth=1;fontFamily=Verdana;fontSize=10;" vertex="1" parent="1">
          <mxGeometry x="100" y="313" width="200" height="69" as="geometry" />
        </mxCell>
        <mxCell id="AbUVaqsSFK9AA0rouDUY-43" value="ID_PRODUCTO" style="shape=partialRectangle;top=0;left=0;right=0;bottom=1;html=1;align=left;verticalAlign=middle;fillColor=none;spacingLeft=34;spacingRight=4;whiteSpace=wrap;overflow=hidden;rotatable=0;points=[[0,0.5],[1,0.5]];portConstraint=eastwest;dropTarget=0;fontStyle=5;fontSize=10;" vertex="1" parent="AbUVaqsSFK9AA0rouDUY-42">
          <mxGeometry y="26" width="200" height="30" as="geometry" />
        </mxCell>
        <mxCell id="AbUVaqsSFK9AA0rouDUY-44" value="PK" style="shape=partialRectangle;top=0;left=0;bottom=0;html=1;fillColor=none;align=left;verticalAlign=middle;spacingLeft=4;spacingRight=4;whiteSpace=wrap;overflow=hidden;rotatable=0;points=[];portConstraint=eastwest;part=1;fontSize=10;" vertex="1" connectable="0" parent="AbUVaqsSFK9AA0rouDUY-43">
          <mxGeometry width="30" height="30" as="geometry" />
        </mxCell>
        <mxCell id="AbUVaqsSFK9AA0rouDUY-63" value="" style="shape=partialRectangle;top=0;left=0;right=0;bottom=0;html=1;align=left;verticalAlign=top;fillColor=none;spacingLeft=34;spacingRight=4;whiteSpace=wrap;overflow=hidden;rotatable=0;points=[[0,0.5],[1,0.5]];portConstraint=eastwest;dropTarget=0;" vertex="1" parent="AbUVaqsSFK9AA0rouDUY-42">
          <mxGeometry y="56" width="200" height="10" as="geometry" />
        </mxCell>
        <mxCell id="AbUVaqsSFK9AA0rouDUY-64" value="" style="shape=partialRectangle;top=0;left=0;bottom=0;html=1;fillColor=none;align=left;verticalAlign=top;spacingLeft=4;spacingRight=4;whiteSpace=wrap;overflow=hidden;rotatable=0;points=[];portConstraint=eastwest;part=1;" vertex="1" connectable="0" parent="AbUVaqsSFK9AA0rouDUY-63">
          <mxGeometry width="30" height="10" as="geometry" />
        </mxCell>
        <mxCell id="AbUVaqsSFK9AA0rouDUY-65" value="ASB_PLAN_PRODUCTO" style="swimlane;html=1;fontStyle=0;childLayout=stackLayout;horizontal=1;startSize=26;fillColor=#e0e0e0;horizontalStack=0;resizeParent=1;resizeLast=0;collapsible=1;marginBottom=0;swimlaneFillColor=#ffffff;align=center;rounded=0;shadow=0;comic=0;labelBackgroundColor=none;strokeWidth=1;fontFamily=Verdana;fontSize=10;" vertex="1" parent="1">
          <mxGeometry x="790" y="530" width="200" height="69" as="geometry" />
        </mxCell>
        <mxCell id="AbUVaqsSFK9AA0rouDUY-66" value="ID_PLAN_PRODUCTO" style="shape=partialRectangle;top=0;left=0;right=0;bottom=1;html=1;align=left;verticalAlign=middle;fillColor=none;spacingLeft=34;spacingRight=4;whiteSpace=wrap;overflow=hidden;rotatable=0;points=[[0,0.5],[1,0.5]];portConstraint=eastwest;dropTarget=0;fontStyle=5;fontSize=10;" vertex="1" parent="AbUVaqsSFK9AA0rouDUY-65">
          <mxGeometry y="26" width="200" height="30" as="geometry" />
        </mxCell>
        <mxCell id="AbUVaqsSFK9AA0rouDUY-67" value="PK" style="shape=partialRectangle;top=0;left=0;bottom=0;html=1;fillColor=none;align=left;verticalAlign=middle;spacingLeft=4;spacingRight=4;whiteSpace=wrap;overflow=hidden;rotatable=0;points=[];portConstraint=eastwest;part=1;fontSize=10;" vertex="1" connectable="0" parent="AbUVaqsSFK9AA0rouDUY-66">
          <mxGeometry width="30" height="30" as="geometry" />
        </mxCell>
        <mxCell id="AbUVaqsSFK9AA0rouDUY-68" value="" style="shape=partialRectangle;top=0;left=0;right=0;bottom=0;html=1;align=left;verticalAlign=top;fillColor=none;spacingLeft=34;spacingRight=4;whiteSpace=wrap;overflow=hidden;rotatable=0;points=[[0,0.5],[1,0.5]];portConstraint=eastwest;dropTarget=0;" vertex="1" parent="AbUVaqsSFK9AA0rouDUY-65">
          <mxGeometry y="56" width="200" height="10" as="geometry" />
        </mxCell>
        <mxCell id="AbUVaqsSFK9AA0rouDUY-69" value="" style="shape=partialRectangle;top=0;left=0;bottom=0;html=1;fillColor=none;align=left;verticalAlign=top;spacingLeft=4;spacingRight=4;whiteSpace=wrap;overflow=hidden;rotatable=0;points=[];portConstraint=eastwest;part=1;" vertex="1" connectable="0" parent="AbUVaqsSFK9AA0rouDUY-68">
          <mxGeometry width="30" height="10" as="geometry" />
        </mxCell>
        <mxCell id="AbUVaqsSFK9AA0rouDUY-70" style="edgeStyle=orthogonalEdgeStyle;rounded=0;orthogonalLoop=1;jettySize=auto;html=1;exitX=0;exitY=0.5;exitDx=0;exitDy=0;entryX=0;entryY=0.5;entryDx=0;entryDy=0;endArrow=ERoneToMany;endFill=0;startArrow=ERone;startFill=0;" edge="1" parent="1" source="AbUVaqsSFK9AA0rouDUY-43" target="2e49270ec7c68f3f-85">
          <mxGeometry relative="1" as="geometry" />
        </mxCell>
        <mxCell id="AbUVaqsSFK9AA0rouDUY-72" style="edgeStyle=orthogonalEdgeStyle;rounded=0;orthogonalLoop=1;jettySize=auto;html=1;exitX=1;exitY=0.5;exitDx=0;exitDy=0;entryX=0;entryY=0.5;entryDx=0;entryDy=0;endArrow=ERoneToMany;endFill=0;startArrow=ERone;startFill=0;" edge="1" parent="1" source="AbUVaqsSFK9AA0rouDUY-43" target="AbUVaqsSFK9AA0rouDUY-18">
          <mxGeometry relative="1" as="geometry" />
        </mxCell>
        <mxCell id="AbUVaqsSFK9AA0rouDUY-73" style="edgeStyle=orthogonalEdgeStyle;rounded=0;orthogonalLoop=1;jettySize=auto;html=1;exitX=0;exitY=0.5;exitDx=0;exitDy=0;startArrow=ERone;startFill=0;endArrow=ERoneToMany;endFill=0;" edge="1" parent="1" source="AbUVaqsSFK9AA0rouDUY-66" target="2e49270ec7c68f3f-87">
          <mxGeometry relative="1" as="geometry" />
        </mxCell>
      </root>
    </mxGraphModel>
  </diagram>
</mxfile>
